<svg width="8" height="8" viewBox="0 0 10 11" fill="none" xmlns="http://www.w3.org/2000/svg">
<path fill-rule="evenodd" clip-rule="evenodd" d="M0.231232 0.302521C0.53954 -0.0057881 1.03941 -0.0057881 1.34772 0.302521L5 3.9548L8.65228 0.302521C8.96059 -0.0057881 9.46046 -0.0057881 9.76877 0.302521C10.0771 0.610829 10.0771 1.1107 9.76877 1.419L6.11649 5.07129L9.76877 8.72357C10.0771 9.03188 10.0771 9.53175 9.76877 9.84006C9.46046 10.1484 8.96059 10.1484 8.65228 9.84006L5 6.18777L1.34772 9.84006C1.03941 10.1484 0.53954 10.1484 0.231232 9.84006C-0.0770772 9.53175 -0.0770772 9.03188 0.231232 8.72357L3.88352 5.07129L0.231232 1.419C-0.0770772 1.1107 -0.0770772 0.610829 0.231232 0.302521Z" fill="#ffffff"/>
</svg>
